# xmcd
#
# Track frame offsets:
# 150
# 19025
# 34275
# 49300
# 79920
# 101277
# 115395
# 131602
# 149475
# 170907
# 184030
# 205397
# 224345
#
# Disc length: 3401 seconds
#
#
# Revision: 0
# Processed by: cddbd v1.5.1PL0 Copyright (c) Steve Scherf et al.
# Submitted via: FreeRIP 2.40 
#
DISCID=c50d470d
DTITLE=Blue Devil - Tears Of Ice
DYEAR=1900
DGENRE=Blues
TTITLE0=BorderLine
TTITLE1=sweet Thing
TTITLE2=My baby she left me
TTITLE3=Tears of ice
TTITLE4=Temptations
TTITLE5=Dont confuse me
TTITLE6=It dont mean nothing
TTITLE7=Blue devil
TTITLE8=You dont have to go
TTITLE9=Final demand
TTITLE10=Luka
TTITLE11=Dust my broom
TTITLE12=Comin home
EXTD=
EXTT0=
EXTT1=
EXTT2=
EXTT3=
EXTT4=
EXTT5=
EXTT6=
EXTT7=
EXTT8=
EXTT9=
EXTT10=
EXTT11=
EXTT12=
PLAYORDER=
